<svg width="19" height="19" viewBox="0 0 19 19" fill="none" xmlns="http://www.w3.org/2000/svg">
<g clip-path="url(#clip0_82_500)">
<path d="M16.625 6.33333H15.0417V2.70433L12.3128 0H6.33333C5.02392 0 3.95833 1.06558 3.95833 2.375V4.75H2.375C1.06558 4.75 0 5.81558 0 7.125V19H19V8.70833C19 7.39892 17.9344 6.33333 16.625 6.33333ZM5.54167 2.375C5.54167 1.938 5.89713 1.58333 6.33333 1.58333H11.0833V3.95833H13.4583V6.33333H9.291L6.12433 4.75H5.54167V2.375ZM17.4167 17.4167H1.58333V7.125C1.58333 6.688 1.93879 6.33333 2.375 6.33333H5.75067L8.91733 7.91667H16.625C17.0612 7.91667 17.4167 8.27133 17.4167 8.70833V17.4167ZM10.2917 11.875H12.6667V13.4583H10.2917V15.8333H8.70833V13.4583H6.33333V11.875H8.70833V9.5H10.2917V11.875Z" fill="#8B8B8B"/>
</g>
<defs>
<clipPath id="clip0_82_500">
<rect width="19" height="19" fill="white"/>
</clipPath>
</defs>
</svg>
