<svg width="33" height="33" viewBox="0 0 33 33" fill="none" xmlns="http://www.w3.org/2000/svg">
<g clip-path="url(#clip0_82_303)">
<path d="M0 8.93726C0 7.03838 1.53863 5.49976 3.4375 5.49976C5.33638 5.49976 6.875 7.03838 6.875 8.93726C6.875 10.8361 5.33638 12.3748 3.4375 12.3748C1.53863 12.3748 0 10.8361 0 8.93726ZM5.5 30.2498H1.375C0.616 30.2498 0 30.8658 0 31.6248C0 32.3838 0.616 32.9998 1.375 32.9998H5.5C6.259 32.9998 6.875 32.3838 6.875 31.6248C6.875 30.8658 6.259 30.2498 5.5 30.2498ZM29.5625 12.3748C31.4614 12.3748 33 10.8361 33 8.93726C33 7.03838 31.4614 5.49976 29.5625 5.49976C27.6636 5.49976 26.125 7.03838 26.125 8.93726C26.125 10.8361 27.6636 12.3748 29.5625 12.3748ZM8.9375 24.7498H6.875V17.1873C6.875 15.2884 5.33638 13.7498 3.4375 13.7498C1.53863 13.7498 0 15.2884 0 17.1873V23.3748C0 25.6256 1.81225 27.4599 4.0535 27.4984C4.07687 27.4984 8.9375 27.4998 8.9375 27.4998C9.317 27.4998 9.625 27.8078 9.625 28.1873V31.6248C9.625 32.3838 10.241 32.9998 11 32.9998C11.759 32.9998 12.375 32.3838 12.375 31.6248V28.1873C12.375 26.2925 10.8322 24.7498 8.9375 24.7498ZM20.625 28.1873V31.6248C20.625 32.3838 21.241 32.9998 22 32.9998C22.759 32.9998 23.375 32.3838 23.375 31.6248V28.1873C23.375 27.8078 23.683 27.4998 24.0625 27.4998C24.0625 27.4998 28.9231 27.4998 28.9465 27.4984C31.1877 27.4599 33 25.6256 33 23.3748V17.1873C33 15.2884 31.4614 13.7498 29.5625 13.7498C27.6636 13.7498 26.125 15.2884 26.125 17.1873V24.7498H24.0625C22.1677 24.7498 20.625 26.2925 20.625 28.1873ZM31.625 30.2498H27.5C26.741 30.2498 26.125 30.8658 26.125 31.6248C26.125 32.3838 26.741 32.9998 27.5 32.9998H31.625C32.384 32.9998 33 32.3838 33 31.6248C33 30.8658 32.384 30.2498 31.625 30.2498ZM23.375 19.2498C23.375 18.4908 22.759 17.8748 22 17.8748H11C10.241 17.8748 9.625 18.4908 9.625 19.2498C9.625 20.0088 10.241 20.6248 11 20.6248H22C22.759 20.6248 23.375 20.0088 23.375 19.2498ZM16.3818 13.065C15.884 13.065 15.3794 12.889 14.9779 12.5329L13.1244 10.9984H12.9965C11.1017 10.9984 9.559 9.45563 9.559 7.56088V3.43588C9.559 1.54113 11.1017 -0.00161743 12.9965 -0.00161743H19.8715C21.7662 -0.00161743 23.309 1.54113 23.309 3.43588V7.56088C23.309 9.45563 21.7662 10.9984 19.8715 10.9984H19.6144L17.7238 12.5631C17.3498 12.8959 16.8685 13.065 16.3818 13.065Z" fill="#71D099"/>
</g>
<defs>
<clipPath id="clip0_82_303">
<rect width="33" height="33" fill="white"/>
</clipPath>
</defs>
</svg>
