<svg width="19" height="19" viewBox="0 0 19 19" fill="none" xmlns="http://www.w3.org/2000/svg">
<g clip-path="url(#clip0_82_495)">
<path d="M7.99595 5.225V6.65079H8.86758C9.21749 6.65079 9.50091 6.93421 9.50091 7.28413C9.50091 7.63404 9.21749 7.91746 8.86758 7.91746H7.99595V9.65913C7.99595 10.009 7.71253 10.2925 7.36262 10.2925C7.0127 10.2925 6.72928 10.009 6.72928 9.65913V4.59246C6.72928 4.24254 7.0127 3.95913 7.36262 3.95913H8.86678C9.2167 3.95913 9.50012 4.24254 9.50012 4.59246C9.50012 4.94238 9.2167 5.22579 8.86678 5.22579H7.99516L7.99595 5.225ZM12.4301 5.225C12.78 5.225 13.0634 4.94159 13.0634 4.59167C13.0634 4.24175 12.78 3.95834 12.4301 3.95834H10.9259C10.576 3.95834 10.2926 4.24175 10.2926 4.59167V9.65833C10.2926 10.0083 10.576 10.2917 10.9259 10.2917H12.4301C12.78 10.2917 13.0634 10.0083 13.0634 9.65833C13.0634 9.30842 12.78 9.025 12.4301 9.025H11.5585V7.91667H12.4301C12.78 7.91667 13.0634 7.63325 13.0634 7.28334C13.0634 6.93342 12.78 6.65 12.4301 6.65H11.5585V5.22421L12.4301 5.225ZM15.9926 7.91667C16.3425 7.91667 16.6259 7.63325 16.6259 7.28334C16.6259 6.93342 16.3425 6.65 15.9926 6.65H15.121V5.22421H15.9926C16.3425 5.22421 16.6259 4.94079 16.6259 4.59088C16.6259 4.24096 16.3425 3.95754 15.9926 3.95754H14.4884C14.1385 3.95754 13.8551 4.24096 13.8551 4.59088V9.65754C13.8551 10.0075 14.1385 10.2909 14.4884 10.2909H15.9926C16.3425 10.2909 16.6259 10.0075 16.6259 9.65754C16.6259 9.30763 16.3425 9.02421 15.9926 9.02421H15.121V7.91588H15.9926V7.91667ZM15.8342 11.875C15.3972 11.875 15.0426 12.2289 15.0426 12.6667V16.7065L14.1717 16.1104C13.9018 15.9268 13.5471 15.9268 13.2772 16.1104L11.6139 17.2488L9.95137 16.1096C9.68141 15.926 9.32516 15.926 9.05678 16.1096L7.39349 17.2488L5.72704 16.1104C5.45708 15.9268 5.1032 15.9268 4.83324 16.1104L3.95845 16.7089V3.95834C3.95845 2.64892 5.02403 1.58334 6.33345 1.58334H12.9486C13.5281 1.58334 14.0855 1.79392 14.5185 2.17709C14.847 2.46684 15.3458 2.43596 15.6363 2.10821C15.9261 1.78046 15.8944 1.28013 15.5675 0.990377C14.8439 0.351502 13.9145 0.000793722 12.9486 0.000793722H6.33187C4.14924 2.05496e-06 2.37354 1.77571 2.37354 3.95834V18.2083C2.37354 18.502 2.53583 18.7712 2.79549 18.909C3.05516 19.0451 3.36945 19.0277 3.6117 18.8615L5.27816 17.7223L6.94541 18.8615C7.07999 18.9533 7.23595 19 7.39191 19C7.54787 19 7.70462 18.9533 7.8392 18.8615L9.50249 17.7223L11.165 18.8615C11.435 19.0451 11.7904 19.0451 12.0596 18.8615L13.7229 17.723L15.3854 18.8615C15.6284 19.0277 15.9419 19.0451 16.2016 18.909C16.4612 18.7728 16.6243 18.502 16.6243 18.2083V12.6675C16.6243 12.2297 16.2697 11.8758 15.8327 11.8758L15.8342 11.875Z" fill="#8B8B8B"/>
</g>
<defs>
<clipPath id="clip0_82_495">
<rect width="19" height="19" fill="white"/>
</clipPath>
</defs>
</svg>
