<svg width="33" height="33" viewBox="0 0 33 33" fill="none" xmlns="http://www.w3.org/2000/svg">
<g clip-path="url(#clip0_82_225)">
<path d="M23.375 0H9.625C7.35075 0 5.5 1.85075 5.5 4.125V33H27.5V4.125C27.5 1.85075 25.6493 0 23.375 0ZM15.125 26.125H11V23.375H15.125V26.125ZM15.125 20.625H11V17.875H15.125V20.625ZM12.375 11V8.25H15.125V5.5H17.875V8.25H20.625V11H17.875V13.75H15.125V11H12.375ZM22 26.125H17.875V23.375H22V26.125ZM22 20.625H17.875V17.875H22V20.625ZM33 12.375V33H30.25V8.503C31.8464 9.07225 33 10.5848 33 12.375ZM2.75 8.503V33H0V12.375C0 10.5848 1.15363 9.07225 2.75 8.503Z" fill="#FF6471"/>
</g>
<defs>
<clipPath id="clip0_82_225">
<rect width="33" height="33" fill="white"/>
</clipPath>
</defs>
</svg>
