<svg width="19" height="19" viewBox="0 0 19 19" fill="none" xmlns="http://www.w3.org/2000/svg">
<g clip-path="url(#clip0_82_328)">
<path d="M15.8333 4.82996V3.95833C15.8333 1.77571 14.0576 0 11.875 0H7.125C4.94238 0 3.16667 1.77571 3.16667 3.95833V4.82996C1.36246 5.19808 0 6.79725 0 8.70833V15.0417C0 17.2243 1.77571 19 3.95833 19H15.0417C17.2243 19 19 17.2243 19 15.0417V8.70833C19 6.79725 17.6375 5.19729 15.8333 4.82996ZM1.58333 15.0417V8.70833C1.58333 7.676 2.24517 6.79646 3.16667 6.4695V17.2805C2.24517 16.9535 1.58333 16.074 1.58333 15.0417ZM4.75 3.95833C4.75 2.64892 5.81558 1.58333 7.125 1.58333H11.875C13.1844 1.58333 14.25 2.64892 14.25 3.95833V17.4167H4.75V3.95833ZM17.4167 15.0417C17.4167 16.074 16.7548 16.9535 15.8333 17.2805V6.4695C16.7548 6.79646 17.4167 7.676 17.4167 8.70833V15.0417ZM8.70833 11.0833C8.70833 11.5203 8.35446 11.875 7.91667 11.875H7.125C6.68721 11.875 6.33333 11.5203 6.33333 11.0833C6.33333 10.6463 6.68721 10.2917 7.125 10.2917H7.91667C8.35446 10.2917 8.70833 10.6463 8.70833 11.0833ZM12.6667 11.0833C12.6667 11.5203 12.3128 11.875 11.875 11.875H11.0833C10.6455 11.875 10.2917 11.5203 10.2917 11.0833C10.2917 10.6463 10.6455 10.2917 11.0833 10.2917H11.875C12.3128 10.2917 12.6667 10.6463 12.6667 11.0833ZM8.70833 14.25C8.70833 14.687 8.35446 15.0417 7.91667 15.0417H7.125C6.68721 15.0417 6.33333 14.687 6.33333 14.25C6.33333 13.813 6.68721 13.4583 7.125 13.4583H7.91667C8.35446 13.4583 8.70833 13.813 8.70833 14.25ZM12.6667 14.25C12.6667 14.687 12.3128 15.0417 11.875 15.0417H11.0833C10.6455 15.0417 10.2917 14.687 10.2917 14.25C10.2917 13.813 10.6455 13.4583 11.0833 13.4583H11.875C12.3128 13.4583 12.6667 13.813 12.6667 14.25ZM10.2917 7.125C10.2917 7.562 9.93779 7.91667 9.5 7.91667C9.06221 7.91667 8.70833 7.562 8.70833 7.125V6.33333H7.91667C7.47888 6.33333 7.125 5.97867 7.125 5.54167C7.125 5.10467 7.47888 4.75 7.91667 4.75H8.70833V3.95833C8.70833 3.52133 9.06221 3.16667 9.5 3.16667C9.93779 3.16667 10.2917 3.52133 10.2917 3.95833V4.75H11.0833C11.5211 4.75 11.875 5.10467 11.875 5.54167C11.875 5.97867 11.5211 6.33333 11.0833 6.33333H10.2917V7.125Z" fill="#8B8B8B"/>
</g>
<defs>
<clipPath id="clip0_82_328">
<rect width="19" height="19" fill="white"/>
</clipPath>
</defs>
</svg>
