<svg width="34" height="33" viewBox="0 0 34 33" fill="none" xmlns="http://www.w3.org/2000/svg">
<path d="M16.8624 16.5C12.3125 16.5 8.61237 12.7999 8.61237 8.25C8.61237 3.70012 12.3139 0 16.8624 0C21.4109 0 25.1124 3.70012 25.1124 8.25C25.1124 12.7999 21.4122 16.5 16.8624 16.5ZM19.5835 25.003V19.25H12.6796V25.1309C13.4977 25.6066 14.0546 26.4839 14.0546 27.5C14.0546 29.0194 12.824 30.25 11.3046 30.25C9.78525 30.25 8.55462 29.0194 8.55462 27.5C8.55462 26.4853 9.1115 25.608 9.92962 25.1309V19.2528C6.1525 19.2692 3.0835 22.3438 3.0835 26.125V33H16.8335V28.875C16.8335 27.0847 17.9871 25.5723 19.5835 25.003ZM23.7085 19.25H22.3335V25.003C23.9299 25.5723 25.0835 27.0847 25.0835 28.875V33H30.5835V26.125C30.5835 22.3341 27.4994 19.25 23.7085 19.25ZM20.9585 27.5C20.1995 27.5 19.5835 28.116 19.5835 28.875V33H22.3335V28.875C22.3335 28.116 21.7175 27.5 20.9585 27.5Z" fill="#FD784C"/>
</svg>
