<svg width="34" height="33" viewBox="0 0 34 33" fill="none" xmlns="http://www.w3.org/2000/svg">
<path d="M28.3682 2H18.0418V5.625H25.1456L2.3335 28.4371L4.89637 31L27.7085 8.18787V15.2917H31.3335V4.96525C31.3325 4.17911 31.0198 3.42545 30.4639 2.86956C29.9081 2.31368 29.1544 2.00096 28.3682 2Z" fill="#2886FF"/>
<path d="M10.1877 15.2916C11.2632 15.2916 12.3145 14.9727 13.2087 14.3752C14.1028 13.7778 14.7998 12.9285 15.2113 11.935C15.6229 10.9414 15.7306 9.8481 15.5208 8.79332C15.311 7.73855 14.7931 6.76968 14.0326 6.00924C13.2722 5.24879 12.3033 4.73092 11.2485 4.52111C10.1938 4.3113 9.10048 4.41898 8.1069 4.83053C7.11333 5.24208 6.26411 5.93902 5.66663 6.83322C5.06915 7.72741 4.75024 8.77869 4.75024 9.85413C4.75184 11.2958 5.32523 12.6779 6.34462 13.6973C7.364 14.7166 8.74612 15.29 10.1877 15.2916ZM10.1877 8.04163C10.5462 8.04163 10.8967 8.14793 11.1947 8.34709C11.4928 8.54625 11.7251 8.82932 11.8623 9.16051C11.9995 9.49171 12.0354 9.85614 11.9654 10.2077C11.8955 10.5593 11.7229 10.8823 11.4694 11.1358C11.2159 11.3892 10.8929 11.5619 10.5413 11.6318C10.1898 11.7017 9.82532 11.6658 9.49413 11.5287C9.16294 11.3915 8.87987 11.1592 8.68071 10.8611C8.48155 10.563 8.37524 10.2126 8.37524 9.85413C8.37524 9.37342 8.5662 8.91241 8.90611 8.5725C9.24602 8.23259 9.70704 8.04163 10.1877 8.04163Z" fill="#2886FF"/>
<path d="M23.4793 17.7084C22.4038 17.7084 21.3525 18.0273 20.4583 18.6248C19.5641 19.2222 18.8672 20.0715 18.4557 21.065C18.0441 22.0586 17.9364 23.1519 18.1462 24.2067C18.356 25.2614 18.8739 26.2303 19.6344 26.9908C20.3948 27.7512 21.3637 28.2691 22.4184 28.4789C23.4732 28.6887 24.5665 28.581 25.5601 28.1695C26.5537 27.7579 27.4029 27.061 28.0004 26.1668C28.5978 25.2726 28.9168 24.2213 28.9168 23.1459C28.9152 21.7043 28.3418 20.3221 27.3224 19.3027C26.303 18.2834 24.9209 17.71 23.4793 17.7084ZM23.4793 24.9584C23.1208 24.9584 22.7703 24.8521 22.4723 24.6529C22.1742 24.4538 21.9419 24.1707 21.8047 23.8395C21.6675 23.5083 21.6316 23.1439 21.7016 22.7923C21.7715 22.4407 21.9441 22.1177 22.1976 21.8642C22.4511 21.6108 22.7741 21.4381 23.1257 21.3682C23.4772 21.2983 23.8417 21.3342 24.1729 21.4713C24.5041 21.6085 24.7871 21.8408 24.9863 22.1389C25.1854 22.437 25.2918 22.7874 25.2918 23.1459C25.2918 23.6266 25.1008 24.0876 24.7609 24.4275C24.421 24.7674 23.96 24.9584 23.4793 24.9584Z" fill="#2886FF"/>
</svg>
