<svg width="34" height="33" viewBox="0 0 34 33" fill="none" xmlns="http://www.w3.org/2000/svg">
<g clip-path="url(#clip0_82_300)">
<path d="M13.0417 16.5C8.49187 16.5 4.79175 12.7999 4.79175 8.25C4.79175 3.70012 8.49187 0 13.0417 0C17.5916 0 21.2917 3.70012 21.2917 8.25C21.2917 12.7999 17.5916 16.5 13.0417 16.5ZM30.2774 27.5H33.6667V24.75H28.8061L26.9622 27.5165L22.8372 19.2665L19.1811 24.75H15.7917V27.5H20.6524L22.4962 24.7335L26.6212 33L30.2774 27.5ZM22.18 30.25H13.0417V22H17.7085L19.4781 19.3449C19.1687 19.3022 18.8621 19.25 18.5404 19.25H7.54175C3.75087 19.25 0.666748 22.3341 0.666748 26.125V33H23.555L22.18 30.25Z" fill="#FFDF6B"/>
</g>
<defs>
<clipPath id="clip0_82_300">
<rect width="33" height="33" fill="white" transform="translate(0.666748)"/>
</clipPath>
</defs>
</svg>
