<svg width="19" height="19" viewBox="0 0 19 19" fill="none" xmlns="http://www.w3.org/2000/svg">
<g clip-path="url(#clip0_82_489)">
<path d="M9.5 0C7.62108 0 5.78435 0.557165 4.22209 1.60104C2.65982 2.64491 1.44218 4.12861 0.723149 5.86451C0.00411622 7.60041 -0.184015 9.51054 0.182544 11.3534C0.549104 13.1962 1.45389 14.8889 2.78249 16.2175C4.11109 17.5461 5.80383 18.4509 7.64665 18.8175C9.48947 19.184 11.3996 18.9959 13.1355 18.2769C14.8714 17.5578 16.3551 16.3402 17.399 14.7779C18.4428 13.2157 19 11.3789 19 9.5C18.9973 6.98128 17.9955 4.5665 16.2145 2.78549C14.4335 1.00449 12.0187 0.00272419 9.5 0ZM9.5 17.4167C7.93424 17.4167 6.40363 16.9524 5.10174 16.0825C3.79985 15.2126 2.78515 13.9762 2.18596 12.5296C1.58676 11.083 1.42999 9.49122 1.73545 7.95554C2.04092 6.41985 2.79491 5.00924 3.90208 3.90207C5.00924 2.79491 6.41986 2.04092 7.95554 1.73545C9.49122 1.42998 11.083 1.58676 12.5296 2.18595C13.9762 2.78515 15.2126 3.79985 16.0825 5.10174C16.9524 6.40363 17.4167 7.93423 17.4167 9.5C17.4144 11.5989 16.5795 13.6112 15.0954 15.0954C13.6112 16.5795 11.5989 17.4144 9.5 17.4167Z" fill="#8B8B8B"/>
<path d="M9.50018 4.75C9.29022 4.75 9.08886 4.83341 8.94039 4.98187C8.79192 5.13034 8.70851 5.3317 8.70851 5.54167V8.96562L6.03981 10.6376C5.86134 10.7491 5.73447 10.9269 5.68711 11.132C5.63975 11.337 5.67577 11.5524 5.78726 11.7309C5.89876 11.9094 6.07658 12.0363 6.28161 12.0836C6.48664 12.131 6.70209 12.0949 6.88056 11.9835L9.92056 10.0835C10.0354 10.0115 10.1299 9.91124 10.1949 9.79231C10.2599 9.67338 10.2933 9.53974 10.2918 9.40421V5.54167C10.2918 5.3317 10.2084 5.13034 10.06 4.98187C9.91151 4.83341 9.71014 4.75 9.50018 4.75Z" fill="#8B8B8B"/>
</g>
<defs>
<clipPath id="clip0_82_489">
<rect width="19" height="19" fill="white"/>
</clipPath>
</defs>
</svg>
